<svg width="417" height="417" viewBox="0 0 417 417" fill="none" xmlns="http://www.w3.org/2000/svg">
<g opacity="0.42" clip-path="url(#clip0_108_102)">
<path fill-rule="evenodd" clip-rule="evenodd" d="M88.0009 217.179L213.6 222.54L300.225 131.435L174.625 126.074L88.0009 217.179ZM45.7632 234.244C43.9333 229.715 44.5191 224.21 48.463 220.062L155.3 107.699C160.606 102.118 168.068 99.1032 175.762 99.4319L330.668 106.043C342.105 106.531 347.65 120.256 339.762 128.552L305.31 164.786L326.597 217.475C328.473 222.117 329.004 227.194 328.129 232.125C321.314 270.506 295.232 298.827 251.552 316.475C207.872 334.123 169.437 331.868 137.875 308.994C133.821 306.056 130.676 302.036 128.799 297.392L107.51 244.702L78.2448 243.453L92.9644 279.885C95.723 286.713 92.4242 294.484 85.5967 297.242C78.7691 300.001 70.9981 296.702 68.2395 289.875L45.7632 234.244ZM285.126 186.014L232.925 240.914C227.619 246.495 220.157 249.51 212.463 249.182L136.776 245.951L153.524 287.401C177.082 304.475 205.886 306.164 241.563 291.75C277.241 277.335 296.787 256.111 301.872 227.464L285.126 186.014Z" fill="#CACAFF"/>
</g>
<defs>
<clipPath id="clip0_108_102">
<rect width="320" height="320" fill="white" transform="translate(0 119.874) rotate(-22)"/>
</clipPath>
</defs>
</svg>
